<svg id="Capa_1" enable-background="new 0 0 512 512" height="512" viewBox="0 0 512 512" width="512" color="#fff" xmlns="http://www.w3.org/2000/svg"><g><path d="m46 421v91h390v-91h-60v-30h45v-30c-24.813 0-45-20.187-45-45v-15h-30v-30h45v-30c-24.813 0-45-20.187-45-45v-15h-30v-30h45v-30c-24.813 0-45-20.187-45-45v-15h-60v-61h-30v61h-60v15c0 24.813-20.187 45-45 45v30h45v30h-30v15c0 24.813-20.187 45-45 45v30h45v30h-30v15c0 24.813-20.187 45-45 45v30h45v30zm30 30h99.206l-30.492 31h-68.714zm180-60v30h-30v-30zm8.714 60 30.492 31h-108.412l30.492-31zm141.286 31h-68.714l-30.492-31h99.206zm-60-61h-60v-30h60zm-151.507-330h93.014c2.258 11.075 6.966 21.276 13.528 30h-120.07c6.562-8.724 11.27-18.925 13.528-30zm1.507 60h90v30h-90zm-31.507 60h153.014c2.258 11.075 6.966 21.276 13.528 30h-180.07c6.562-8.724 11.27-18.925 13.528-30zm1.507 60h150v30h-150zm-31.507 60h213.014c2.258 11.075 6.966 21.276 13.528 30h-240.07c6.562-8.724 11.27-18.925 13.528-30zm1.507 60h60v30h-60z"/><path d="m466 45c0-24.813-20.187-45-45-45s-45 20.187-45 45 20.187 45 45 45 45-20.187 45-45zm-60 0c0-8.271 6.729-15 15-15s15 6.729 15 15-6.729 15-15 15-15-6.729-15-15z"/></g></svg>